<svg xmlns="http://www.w3.org/2000/svg" width="1932.217" height="336.718" viewBox="0 0 1932.217 336.718"><defs><style>.a{fill:#fff;}</style></defs><path class="a" d="M152.879,310.719H-1779.248V40.293c.015,0,.16,0,.433,0,.6,0,1.8.006,2.978.013l1.326.007c1.86.01,3.986.021,5.659.021,1.806,0,2.743-.012,2.866-.037a792.033,792.033,0,0,1,82.846-12.169c37.207-3.62,77.952-5.456,121.1-5.456,113.17,0,243.578,12.461,387.6,37.036,28.156,6.885,55.63,13.186,81.659,18.728,26.94,5.737,53.192,10.845,78.026,15.181,25.619,4.474,50.531,8.268,74.045,11.277,24.19,3.1,47.645,5.455,69.714,7.014a90.083,90.083,0,0,0,16.741,6.634,193.05,193.05,0,0,0,22.01,5.08c8.059,1.41,16.644,2.5,25.516,3.25,9.033.759,18.2,1.145,27.26,1.145,7.863,0,15.6-.293,23-.87,7.709-.6,15.089-1.516,21.935-2.719,14.85-2.608,27.127-6.525,36.489-11.641,19.318-2.762,39.485-6.041,59.942-9.746,20.385-3.692,41.243-7.84,61.993-12.329,42.451-9.184,83.8-19.615,122.9-31,29.122-8.075,60.715-15.453,93.9-21.927C-325.755,31.231-290.452,25.584-254.383,21c36.879-4.691,74.763-8.3,112.6-10.732C-102.745,7.756-63.406,6.485-24.86,6.485A1606.7,1606.7,0,0,1,152.879,16.01ZM-463.98,107.7c-5.222,1.695-8.387,2.963-8.466,3.391a.016.016,0,0,0,0,.014.044.044,0,0,0,.033.009,48.181,48.181,0,0,0,4.884-1.934l.008,0,.28-.117C-466.277,108.662-465.187,108.206-463.98,107.7Zm-901.473-27.656c22.943.95,42.361,5.03,57.716,12.126a78.438,78.438,0,0,1,22.714,15.458l0,0c.89.844,1.592,1.51,2.121,1.909a9.758,9.758,0,0,0,5.284,1.482,11.313,11.313,0,0,0,5.94-1.682,7.733,7.733,0,0,0,3.494-4.424,7.521,7.521,0,0,0-1.229-6.066c-1.537-2.392-4.242-4.722-8.04-6.925-20.839-11.3-48.029-17.032-80.813-17.032a354.9,354.9,0,0,0-59.854,5.484c-8.722,1.5-15.709,2.987-20.206,3.972C-1432.37,83.543-1409.527,80.837-1365.452,80.049Zm3.836-18.92c37.428,1.451,69.1,7.786,94.144,18.829,20.415,9,31.228,18.805,37.038,24.071l.01.009c1.449,1.313,2.594,2.35,3.455,2.97a16.458,16.458,0,0,0,8.6,2.3,19.084,19.084,0,0,0,9.8-2.686,12.05,12.05,0,0,0,5.668-7.048,9.66,9.66,0,0,0,.074-4.447,13.908,13.908,0,0,0-2.212-4.931c-2.519-3.683-6.9-7.27-13.024-10.661-33.9-17.55-78.123-26.448-131.436-26.448-30.424,0-63.365,2.9-97.907,8.607-14.274,2.36-25.718,4.69-33.085,6.237h0c-7.186.942-11.6,1.813-11.8,2.33a.018.018,0,0,0,0,.018c.01.015.048.023.114.023.534,0,2.886-.5,6.783-1.331l.008,0c1.394-.3,3.037-.647,4.892-1.037h0c10.75-1.41,26.241-2.8,43.62-3.9C-1414.315,62.6-1389,61.618-1361.616,61.129Zm1042,12.821a285.42,285.42,0,0,0-54.843,5.808,428.172,428.172,0,0,0-48.6,12.776c-19.9,6.444-35.723,13.013-40.921,15.171,7.053-2.29,34.215-10.581,87.558-21.2a247.858,247.858,0,0,1,33.689-2.467c17.994,0,34.005,2.414,47.591,7.176a93.556,93.556,0,0,1,22.134,11.151l.021.014c1.25.825,2.238,1.477,2.96,1.844a11.442,11.442,0,0,0,4.4.853,14.111,14.111,0,0,0,8.042-2.632,10.31,10.31,0,0,0,4.375-6.419,8.842,8.842,0,0,0-2.374-7.4c-2.34-2.709-6.213-5.059-11.512-6.984a147.535,147.535,0,0,0-25.715-5.908A193.256,193.256,0,0,0-319.614,73.95ZM-483.459,96.016c-8.522,2.719-13.692,4.742-13.829,5.412a.023.023,0,0,0,0,.02.07.07,0,0,0,.053.014,81.641,81.641,0,0,0,8.019-3.1l.008,0,.187-.076Q-486.566,97.279-483.459,96.016Zm0,0h0c12.757-4.069,31.274-9.146,52.138-14.3,27.082-6.688,57.62-13.424,90.764-20.02a417.687,417.687,0,0,1,57.81-4.333A280.587,280.587,0,0,1-239.3,60.556a198.773,198.773,0,0,1,31.843,7.624,151.848,151.848,0,0,1,35.13,16.85l.02.012c2.031,1.275,3.635,2.282,4.81,2.846a19.129,19.129,0,0,0,6.976,1.271,22.914,22.914,0,0,0,7.073-1.145,23.844,23.844,0,0,0,6.311-3.126,19.487,19.487,0,0,0,4.764-4.642,13.681,13.681,0,0,0,2.432-5.694,11.707,11.707,0,0,0-.446-5.62,15.987,15.987,0,0,0-3.518-5.757c-3.79-4.131-10.02-7.694-18.516-10.589a245.331,245.331,0,0,0-40.26-8.669,322.133,322.133,0,0,0-42.006-2.635,424.856,424.856,0,0,0-45.636,2.587c-14.344,1.559-29.379,3.853-44.687,6.818a725.324,725.324,0,0,0-80.384,20.685c-33.076,10.466-59.407,21.135-68.06,24.642l-.007,0h0Zm-954.861-11.661c-4.4.6-7.1,1.157-7.222,1.487a.012.012,0,0,0,0,.012c.007.01.029.014.07.014.328,0,1.768-.32,4.154-.85l.022-.005.153-.034C-1440.311,84.794-1439.368,84.585-1438.321,84.355ZM-165.3,31.4c10.367,0,21.881.448,34.223,1.331,17.624,2.942,32.223,9.456,43.39,19.363A72.658,72.658,0,0,1-71.645,72.849c.605,1.107,1.084,1.981,1.455,2.515a5.712,5.712,0,0,0,4.48,2.257c2.731,0,5.373-1.979,6.731-5.042a12.741,12.741,0,0,0,.573-8.1,23.722,23.722,0,0,0-5.865-10.338A83.572,83.572,0,0,0-81.547,40.481a93.041,93.041,0,0,0-19.093-8.557A128.159,128.159,0,0,0-139.9,26.243a194.465,194.465,0,0,0-36.8,3.727c-4.76.922-8.591,1.822-11.058,2.418A203.487,203.487,0,0,1-165.3,31.4Zm-22.459.984c-3.459.4-5.6.872-5.728,1.269a.021.021,0,0,0,0,.02c.01.014.038.02.086.02a29.028,29.028,0,0,0,3.24-.721l.107-.026q1.013-.249,2.293-.56Zm-421.9,60.749h0s-.005,0-.006,0c-.092-.164.59-1.442,1.782-3.334-.282.545-.53,1.027-.729,1.415A14.645,14.645,0,0,1-609.659,93.137Zm1.788-3.357h0c1.492-2.88,3.849-7.325,7.082-12.662a174.881,174.881,0,0,1,12.045-17.5A116.364,116.364,0,0,1-572.231,42.3a66.864,66.864,0,0,1,20.5-12.108,18.978,18.978,0,0,1,5.508-1.043c1.979,0,3.2.652,3.35,1.79.171,1.3-1.205,3.123-3.727,3.8l-.265.048c-15.1,2.7-29.39,15.217-38.716,25.238C-599.8,77.381-606.237,87.188-607.87,89.78Zm35.315-2.178c-.014,0-.022-.006-.023-.019-.04-.489,2.937-2.728,7.77-5.843-1.242.96-2.373,1.841-3.2,2.485l-.016.013A41.64,41.64,0,0,1-572.556,87.6Zm7.764-5.873v0c4.648-3.594,11.894-9.12,21.11-15.585,10.525-7.384,21.179-14.274,31.667-20.477a356.966,356.966,0,0,1,60.088-28.83,238.932,238.932,0,0,1,33.521-9.5,174.422,174.422,0,0,1,34.324-3.6,141.938,141.938,0,0,1,15.339.819c7.036.984,12.393,2.574,15.924,4.725a10.779,10.779,0,0,1,3.392,3.023,4.772,4.772,0,0,1,.9,3.03,5.612,5.612,0,0,1-2.964,4.226,13.209,13.209,0,0,1-6.866,1.756,17.371,17.371,0,0,1-3.187-.3l-.656-.18-.017,0a94.086,94.086,0,0,0-10.511-2.339,122.314,122.314,0,0,0-19.685-1.5,185.706,185.706,0,0,0-36.656,3.969,299.286,299.286,0,0,0-51.327,15.771C-532.518,61.607-558.171,77.463-564.792,81.73ZM152.933,16.014l-.054,0c-12.221-3.945-13.543-4.436-13.545-4.464h0c.152,0,3.73,1.106,7.229,2.233A61.576,61.576,0,0,1,152.97,16C152.968,16.011,152.956,16.014,152.933,16.014Zm-1728.589-3.4h0a.029.029,0,0,1-.022-.006.011.011,0,0,1,0-.01c.04-.336,2.435-1.473,6.252-2.967-.9.439-1.7.838-2.414,1.19l-.184.091A34.039,34.039,0,0,1-1575.657,12.612Zm-60.458-2.271a.005.005,0,0,1-.005,0,9.805,9.805,0,0,1,1.959-2.141c-.305.342-.575.647-.813.916l-.013.014-.014.015A11.651,11.651,0,0,1-1636.114,10.341Zm66.709-.721v0c4.148-2.036,16.771-8.231,32.795-14.343a299.464,299.464,0,0,1,38.447-11.92,192.122,192.122,0,0,1,43.258-5.418,117.974,117.974,0,0,1,33.365,4.485c4.607,1.51,8.053,3.206,10.243,5.04,2.328,1.95,2.627,3.547,2.468,4.544-.31,1.943-2.671,3.3-5.741,3.3a12.084,12.084,0,0,1-4.224-.8l-.429-.2-.016-.008A71.449,71.449,0,0,0-1433.06-10.7a124.236,124.236,0,0,0-30.778-3.5,217.585,217.585,0,0,0-40.279,4.13C-1544.022.114-1564.178,7.576-1569.405,9.62Zm-64.737-1.442h0a150.739,150.739,0,0,1,19.945-18.87,92.1,92.1,0,0,1,15.532-9.876,52.451,52.451,0,0,1,17.464-5.362c.591-.045,1.153-.068,1.671-.068a8.612,8.612,0,0,1,3.632.606,1.619,1.619,0,0,1,1.092,1.365c.016,1.048-1.415,2.26-3.494,2.323l-.116-.006-.088,0c-.373-.02-.937-.05-1.671-.05a39.173,39.173,0,0,0-11.318,1.9,82.179,82.179,0,0,0-20.447,10.022C-1625.781.449-1632.433,6.552-1634.142,8.177Z" transform="translate(1779.248 25.999)"/></svg>