<svg xmlns="http://www.w3.org/2000/svg" width="1059.363" height="600.963" viewBox="0 0 1059.363 600.963"><defs><style>.a{fill:#fff;}</style></defs><path class="a" d="M46.7,16.854S178.674,6.188,214,8.189s87.986-2.705,98.963-.565,93.465-.533,115.5-6.166S529.748,5.285,573.722,6.136s51.015,4.115,125.6,6.993S848.62,4.567,876.9,4.405s102.226-14.9,153.644,34.369-19.661,280.982-19.661,280.982l-7.6,62.826s-10.987-1.039-7.181,13.258,3.749,20.906-2.627,31.957-15.8,11.1-9.6,20.982-4.123,23.154-6.5,25.37-11.856,8.879-3.245,12.134c.687.26,1.087-.723,2.012-.694,3.01.133,5.534-1.645,8.717-1.843a17.126,17.126,0,0,1,6.855.757c1.234.462,2.219,2.1,3.623,1.659,7.087-2.243-12.878,8.756-12.878,8.756s.337,10.084,4.354,10.358-6.777.929-7.812-1.735,3.137,4.135-.118,13.943-4.5,6.849-6.494,17.54-1.082,27.892-5.3,25.839-4.425-2.051-5.712.033,1.456,2.958-.058,6.823-4.3,8.331-7.678,7.46.171,4.745-8.87-1.729-6.331-1.744-13.75.078-13.12.668-14.337-5.555,1.8-13.063-14.684-14.452-19.175-8.79-33.423.191c-5.525,3-8.7,3.313,2.224,12.15,1.217,6.223,4.8,8.279-4.91,5.368s-22.088,10.509-79.83-14.97-67.306-5.736-84.827-5.636-45.849-7.75-109.389,4.668-62.81-2.46-106.352,2.684S221.9,579.627,112.547,580.251c-1.82.858-11.436-5.018-12.083.069s-4.819-1.667-10.221-5.872-9.041-2.49-7.3,5.973-14.279-12.249-40.855-19.912S-.142,190.3-.142,190.3Z" transform="matrix(1, 0.017, -0.017, 1, 10.306, 0.325)"/></svg>