<svg xmlns="http://www.w3.org/2000/svg" width="1996" height="90.257" viewBox="0 0 1996 90.257">
  <g id="MainHeader" transform="translate(-7329.5 209.5)">
    <path id="Intersection_2" data-name="Intersection 2" d="M939.65,173.987c-9.21-6.637-6.5-1.858-14.18-.169s-13.541.432-14.687-5.811,2.087-13.028-14.89-14.714-19.619-9.134-34.469-.411c-5.75,2.9-9.03,3.155,2.081,12.188,1.147,6.244,4.8,8.365-5.157,5.279-2.9-.9-6.049-.419-10.517.061-10.9,1.169-29.627,2.338-71.541-16.466-41.349-18.552-58.764-14.544-71.683-10.537-5.547,1.72-10.265,3.44-15.692,3.376-18.069-.216-47.144-8.574-112.883,2.7-37.88,6.5-53.6,4.313-68.722,2.131-11.124-1.6-21.928-3.209-40.994-1.362-44.989,4.359-272.188,16.9-384.965,15.557-.723.315-2.6-.373-4.688-1.06-3.379-1.112-7.306-2.226-7.773.912-.756,5.075-4.94-1.753-10.436-6.055s-9.28-2.653-7.633,5.84S36.31,152.938,9.039,144.8c-3.063-.914-5.906-6.3-8.538-15.145V87H970.594q.391.187.847.364c.386.149.69-.078,1.044-.306l.091-.058H991.25a2.3,2.3,0,0,0,2.061.624c7.348-2.115-13.432,8.523-13.432,8.523s.172,10.089,4.309,10.435c3.876.325-5.662.749-7.718-1.4a21.464,21.464,0,0,1-.672,13.468c-3.529,9.748-4.759,6.767-7,17.42s-1.6,27.868-5.912,25.739-4.527-2.13-5.89-.07,1.45,2.984-.178,6.821-4.581,8.252-8.048,7.322a1.445,1.445,0,0,0-1.905.636,1.309,1.309,0,0,1-1.151.743C944.814,177.256,943.159,176.515,939.65,173.987Zm106.516,2.517c-.341-.481-.7-.962-1.913-.636-3.483.932-6.449-3.483-8.085-7.32s1.191-4.761-.178-6.822-1.589-2.057-5.918.071-3.684-15.086-5.937-25.739-3.489-7.673-7.034-17.42a21.371,21.371,0,0,1-.674-13.469c-2.065,2.156-11.649,1.731-7.754,1.407,4.156-.346,4.33-10.436,4.33-10.436S992.128,85.5,999.509,87.619a2.313,2.313,0,0,0,2.065-.619h18.775l.081.051c.355.228.661.455,1.05.306.3-.116.579-.235.838-.357H1996.5v43.925c-2.529,8.036-5.247,12.923-8.163,13.79-27.4,8.142-43.633,29.141-41.977,20.648s-2.145-10.142-7.667-5.839-9.726,11.131-10.486,6.056c-.47-3.136-4.415-2.023-7.81-.911-2.1.688-3.983,1.375-4.709,1.061-113.3,1.353-341.55-11.173-386.747-15.527-19.155-1.846-30.01-.24-41.185,1.365-15.2,2.183-30.985,4.366-69.039-2.126-66.043-11.266-95.252-2.905-113.405-2.689-5.453.065-10.193-1.654-15.764-3.374-12.979-4-30.475-8.011-72.015,10.544-42.112,18.808-60.926,17.64-71.876,16.472-4.489-.479-7.656-.958-10.564-.06-10,3.086-6.332.966-5.181-5.278,11.164-9.033,7.868-9.291,2.092-12.189-14.918-8.721-17.573-1.273-34.628.414s-13.809,8.472-14.96,14.716-7.038,7.5-14.755,5.813-4.993-6.467-14.245.17c-3.525,2.528-5.188,3.269-6.089,3.269A1.317,1.317,0,0,1,1046.166,176.5Z" transform="translate(7329 -296.499)" fill="#fff"/>
  </g>
</svg>
