<svg xmlns="http://www.w3.org/2000/svg" width="1978.218" height="316.719" viewBox="0 0 1978.218 316.719">
  <path id="Exclusion_1" data-name="Exclusion 1" d="M198.876,290.719H-1779.249V36.356c.016,0,.184,0,.449,0,.587,0,1.723.006,3.037.012l1.364.007c1.784.009,4.054.02,5.791.02,1.849,0,2.81-.011,2.937-.035,25.518-4.845,54.055-8.7,84.819-11.446,38.091-3.405,79.806-5.132,123.988-5.132,115.864,0,249.376,11.721,396.828,34.837,119.064,18.665,207.02,31.059,276.8,39,71.547,8.147,126.669,11.941,173.474,11.941,22.674,0,43.6-.885,63.984-2.7,18.915-1.69,37.576-4.212,57.05-7.713,17.038-3.063,34.992-6.913,56.5-12.117,19.448-4.7,40.277-10.148,62.328-15.912l.017,0,.012,0c15.252-3.986,31.023-8.108,48.228-12.491,29.814-7.6,62.159-14.535,96.136-20.625,34.356-6.159,70.5-11.469,107.425-15.785C-180.33,13.792-141.544,10.4-102.8,8.11-62.835,5.751-22.56,4.556,16.906,4.556a1789.046,1789.046,0,0,1,181.97,8.959ZM-432.67,99.763c-5.344,1.595-8.583,2.787-8.666,3.189a.013.013,0,0,0,0,.012c.005.006.017.009.035.009a52.935,52.935,0,0,0,5.06-1.842l.014-.005.1-.038Q-434.6,100.5-432.67,99.763ZM-1355.6,73.75c23.489.893,43.37,4.731,59.091,11.406A80.723,80.723,0,0,1-1273.256,99.7l.01.008c.908.792,1.626,1.417,2.166,1.791a10.661,10.661,0,0,0,5.41,1.394,12.341,12.341,0,0,0,6.113-1.6,7.356,7.356,0,0,0,3.564-4.2,6.658,6.658,0,0,0-1.3-5.683c-1.578-2.237-4.339-4.416-8.206-6.477-21.335-10.63-49.171-16.019-82.735-16.019a394.639,394.639,0,0,0-61.279,5.158c-8.934,1.415-16.083,2.81-20.684,3.736h0c-4.506.565-7.272,1.088-7.4,1.4a.011.011,0,0,0,0,.011c.007.009.03.013.072.013.334,0,1.8-.3,4.224-.794l.012,0c.875-.179,1.908-.389,3.089-.627h0C-1424.107,77.036-1400.717,74.491-1355.6,73.75Zm3.928-17.8c38.319,1.365,70.747,7.323,96.384,17.71,20.9,8.467,31.97,17.687,37.919,22.64l.005,0c1.487,1.238,2.661,2.216,3.544,2.8a18,18,0,0,0,8.809,2.167,20.843,20.843,0,0,0,10.08-2.553,11.481,11.481,0,0,0,5.781-6.693,8.4,8.4,0,0,0,.033-4.17,12.7,12.7,0,0,0-2.287-4.617c-2.586-3.445-7.058-6.8-13.293-9.972-34.709-16.507-79.984-24.877-134.567-24.877-31.147,0-64.872,2.724-100.238,8.1-14.622,2.221-26.336,4.412-33.876,5.866h0c11.01-1.327,26.87-2.63,44.658-3.671C-1405.626,57.333-1379.7,56.414-1351.674,55.954ZM-284.865,68.012a317.166,317.166,0,0,0-56.149,5.463,469.874,469.874,0,0,0-49.758,12.017c-20.351,6.054-36.564,12.237-41.891,14.268l0,0c7.227-2.155,35.046-9.955,89.642-19.936a275.859,275.859,0,0,1,34.492-2.32c18.423,0,34.816,2.271,48.724,6.75a99.121,99.121,0,0,1,22.66,10.489l.012.007c1.284.779,2.3,1.394,3.04,1.74a12.618,12.618,0,0,0,4.506.8A15.318,15.318,0,0,0-221.33,94.8a9.664,9.664,0,0,0,4.462-6.077c.434-2.368-.42-4.765-2.469-6.931-2.4-2.536-6.355-4.736-11.758-6.539A162.479,162.479,0,0,0-257.422,69.7,215.173,215.173,0,0,0-284.865,68.012ZM-452.608,88.768c-8.728,2.558-14.021,4.46-14.16,5.09a.02.02,0,0,0,0,.019c.008.009.026.014.054.014.439,0,3.369-1.1,8.225-2.923C-456.7,90.3-454.78,89.576-452.608,88.768Zm244.454-51.483c-14.841,0-30.561.819-46.722,2.433-14.686,1.467-30.079,3.624-45.751,6.413a796.421,796.421,0,0,0-82.3,19.457c-33.882,9.85-60.829,19.883-69.684,23.18,13.056-3.826,32.014-8.6,53.382-13.449,27.726-6.291,58.988-12.626,92.919-18.83a464.76,464.76,0,0,1,59.187-4.075,312.143,312.143,0,0,1,44.483,3,218.581,218.581,0,0,1,32.6,7.171A161.522,161.522,0,0,1-134.07,78.435l.024.014c2.078,1.2,3.72,2.146,4.922,2.676a21.113,21.113,0,0,0,7.141,1.2,25.365,25.365,0,0,0,7.266-1.085,25.3,25.3,0,0,0,6.477-2.959,19.213,19.213,0,0,0,4.876-4.392A12.284,12.284,0,0,0-100.9,68.5a10.165,10.165,0,0,0-.494-5.269,14.965,14.965,0,0,0-3.621-5.394c-3.885-3.868-10.249-7.205-18.914-9.918a270.506,270.506,0,0,0-41.219-8.154A358.629,358.629,0,0,0-208.154,37.285Zm81.28-9.29c10.618,0,22.406.422,35.038,1.252,18.044,2.767,32.99,8.895,44.423,18.212a69.222,69.222,0,0,1,16.42,19.518c.62,1.041,1.11,1.864,1.49,2.366a6.039,6.039,0,0,0,4.587,2.123,7.032,7.032,0,0,0,3.981-1.3,8.832,8.832,0,0,0,2.972-3.574,11.156,11.156,0,0,0,.5-7.58,21.989,21.989,0,0,0-5.98-9.629A84.858,84.858,0,0,0-41.13,36.532a99.626,99.626,0,0,0-19.548-8.048,141.979,141.979,0,0,0-40.191-5.343,216.14,216.14,0,0,0-37.678,3.5c-4.881.869-8.8,1.714-11.321,2.275A226.609,226.609,0,0,1-126.875,27.995Zm-1346.5,34.361c-7.355.888-11.868,1.707-12.074,2.191a.017.017,0,0,0,0,.017c.01.014.048.021.117.021.549,0,2.961-.473,6.958-1.256l.057-.011q2.177-.426,4.94-.962ZM-149.868,28.92c-3.541.374-5.734.82-5.865,1.194a.018.018,0,0,0,0,.018c.01.013.039.019.089.019a31.871,31.871,0,0,0,3.3-.676l.021,0c.678-.154,1.522-.345,2.449-.55ZM-581.815,86.061h0a.008.008,0,0,1-.007,0c-.094-.154.605-1.353,1.823-3.13-.278.492-.519.922-.761,1.357A13.066,13.066,0,0,1-581.815,86.061Zm1.828-3.151h0c1.528-2.709,3.942-6.892,7.25-11.909a164.853,164.853,0,0,1,12.331-16.465A114.19,114.19,0,0,1-543.5,38.248,70.048,70.048,0,0,1-522.5,26.856a20.97,20.97,0,0,1,5.639-.981c2.033,0,3.284.617,3.431,1.693.167,1.221-1.245,2.93-3.817,3.562l-.271.045c-15.46,2.544-30.089,14.313-39.638,23.739C-571.729,71.245-578.316,80.471-579.987,82.909Zm36.159-2.055c-.015,0-.023-.006-.024-.018-.041-.459,3.007-2.565,7.954-5.494-1.258.894-2.377,1.694-3.276,2.337l-.012.009A42.6,42.6,0,0,1-543.828,80.854Zm7.948-5.523h0c4.753-3.377,12.165-8.57,21.613-14.66,10.774-6.944,21.682-13.425,32.422-19.26a380.464,380.464,0,0,1,61.518-27.118,261.634,261.634,0,0,1,34.319-8.937,193.792,193.792,0,0,1,35.141-3.39c5.327,0,10.61.259,15.7.77,7.2.925,12.678,2.418,16.292,4.439a10.809,10.809,0,0,1,3.477,2.84,4.243,4.243,0,0,1,.932,2.847c-.11,1.517-1.185,2.932-3.029,3.983a14.453,14.453,0,0,1-7.036,1.656,19.282,19.282,0,0,1-3.262-.283l-.689-.174a103.788,103.788,0,0,0-10.762-2.2,136.106,136.106,0,0,0-20.154-1.415,206.307,206.307,0,0,0-37.529,3.733A326.818,326.818,0,0,0-449.472,33C-502.842,56.406-529.1,71.318-535.88,75.331ZM198.932,13.518l-.055,0c-12.509-3.71-13.865-4.172-13.867-4.2h0c.157,0,3.82,1.04,7.4,2.1a67.074,67.074,0,0,1,6.559,2.093C198.968,13.515,198.956,13.518,198.932,13.518Zm-1769.742-3.2a.031.031,0,0,1-.022-.006.013.013,0,0,1,0-.01c.042-.317,2.494-1.386,6.4-2.79q-1.458.657-2.6,1.18l-.047.021-.008,0A36.613,36.613,0,0,1-1570.811,10.32Zm-61.9-2.138a.005.005,0,0,1-.005,0,9.505,9.505,0,0,1,2.005-2.013c-.306.316-.582.6-.838.867A11.622,11.622,0,0,1-1632.707,8.182Zm68.3-.677v0c4.252-1.917,17.193-7.75,33.578-13.492A326.861,326.861,0,0,1-1491.473-17.2a213.229,213.229,0,0,1,44.287-5.1,130.825,130.825,0,0,1,34.159,4.218c4.705,1.417,8.228,3.008,10.47,4.728,2.385,1.829,2.7,3.33,2.545,4.267-.3,1.838-2.723,3.121-5.879,3.122a13.33,13.33,0,0,1-4.325-.754l-.456-.2a77.326,77.326,0,0,0-14.148-4.7,137.946,137.946,0,0,0-31.509-3.294,241.794,241.794,0,0,0-41.238,3.884C-1538.424-1.437-1559.06,5.582-1564.412,7.505Zm-66.276-1.358h0A149.787,149.787,0,0,1-1610.271-11.6a95.809,95.809,0,0,1,15.9-9.291,57.243,57.243,0,0,1,17.88-5.045c.607-.042,1.182-.064,1.711-.064a9.514,9.514,0,0,1,3.719.57c.723.323,1.109.767,1.118,1.285.016.986-1.449,2.125-3.578,2.185l-.1,0-.1,0c-.382-.019-.96-.047-1.711-.047a43.342,43.342,0,0,0-11.587,1.785,87.481,87.481,0,0,0-20.936,9.427C-1622.13-1.12-1628.938,4.619-1630.687,6.148Z" transform="translate(1779.249 26)" fill="#fff"/>
</svg>
