<svg xmlns="http://www.w3.org/2000/svg" width="1996" height="168.649" viewBox="0 0 1996 168.649">
  <path id="Subtraction_1" data-name="Subtraction 1" d="M2024.548,598.676h-1996V538.327a54.89,54.89,0,0,0,4.108,10.546c1.444,2.605,2.935,4.153,4.431,4.6,15.238,4.548,27.068,13.157,34.137,18.3,3.583,2.607,5.95,4.33,7.059,4.33a.609.609,0,0,0,.5-.209c.233-.283.261-.865.084-1.777-.669-3.45-.471-5.942.573-7.208a2.532,2.532,0,0,1,2.052-.923c1.36,0,3.092.792,5.007,2.292a53.034,53.034,0,0,1,4.693,4.321c1.974,1.975,3.531,3.534,4.556,3.534.619,0,1.007-.589,1.188-1.8.206-1.38,1.086-2.05,2.693-2.05a18.163,18.163,0,0,1,5.081,1.138l.005,0,.622.207a14.634,14.634,0,0,0,3.59.931,1.177,1.177,0,0,0,.47-.079c5.562.066,11.583.1,17.9.1,68.672,0,162-3.932,211.513-6.277,75.4-3.569,135.325-7.421,155.556-9.381,5.737-.556,10.961-.826,15.969-.826a158.393,158.393,0,0,1,24.7,2.14l.331.048a166.087,166.087,0,0,0,25.922,2.188c11.85,0,25.851-1.413,42.8-4.32,12.3-2.109,24.177-3.668,35.3-4.634,9.667-.839,18.731-1.247,27.71-1.247a324.355,324.355,0,0,1,35.264,2.072c5.6.569,10.429,1.061,14.609,1.112h.293c4.684,0,8.775-1.291,13.512-2.786.546-.172,1.225-.387,1.887-.592A64.361,64.361,0,0,1,752.84,548.7a85.837,85.837,0,0,1,21.151,2.932,189.78,189.78,0,0,1,30.345,10.983c14.37,6.447,27.324,11.11,38.5,13.861a98.238,98.238,0,0,0,23.535,3.171,85.656,85.656,0,0,0,9.5-.565l1.05-.115.213-.024h.009a52.089,52.089,0,0,1,5.48-.427,12.445,12.445,0,0,1,3.765.5,24.932,24.932,0,0,0,5.78,1.4.985.985,0,0,0,.86-.3c.3-.416.015-1.252-.414-2.519a26.58,26.58,0,0,1-1.069-3.866,48.6,48.6,0,0,1-5.847-5.337c-1.127-1.3-1.607-2.284-1.513-3.091.149-1.272,1.716-2.029,3.884-3.076.447-.216.909-.438,1.4-.683,4.895-2.875,8.718-4.157,12.4-4.157a30.649,30.649,0,0,1,8.8,1.747,65.434,65.434,0,0,0,13.272,2.822c13.972,1.387,14.256,6.24,14.556,11.379a27.4,27.4,0,0,0,.333,3.335,7.294,7.294,0,0,0,3.044,4.974,10.664,10.664,0,0,0,6.018,1.521,26.549,26.549,0,0,0,5.625-.684,13.574,13.574,0,0,0,5.112-2.226,4.41,4.41,0,0,1,2.461-1.021c1.342,0,3.195.958,6.607,3.417,3.1,2.23,5.021,3.269,6.06,3.269a1.3,1.3,0,0,0,1.143-.731l.009-.013a1.346,1.346,0,0,1,1.2-.743,2.715,2.715,0,0,1,.7.107,3.62,3.62,0,0,0,.94.126c1.391,0,2.785-.813,4.145-2.417a20.254,20.254,0,0,0,2.962-5.031,5.213,5.213,0,0,0,.1-4.328,2.448,2.448,0,0,1,.077-2.492c.649-.981,1.053-1.535,1.821-1.535s1.994.58,4.07,1.605a1.573,1.573,0,0,0,.693.18c1.038,0,1.8-1.321,2.395-4.157.533-2.539.871-5.986,1.228-9.636v-.014a117.674,117.674,0,0,1,1.595-12.112c1.289-6.118,2.26-7.768,3.49-9.858a38.885,38.885,0,0,0,3.513-7.562,21.385,21.385,0,0,0,.672-13.469c1.262,1.322,5.392,1.672,7.4,1.672a3.251,3.251,0,0,0,1.236-.109c0-.052-.332-.109-.917-.158a3.194,3.194,0,0,1-2.418-1.776,11.992,11.992,0,0,1-1.287-3.571,29.6,29.6,0,0,1-.6-5.087c.153-.079,15.221-7.806,15-8.713-.014-.059-.091-.088-.231-.088a5.867,5.867,0,0,0-1.339.278,1.693,1.693,0,0,1-.466.067,3.376,3.376,0,0,1-1.938-.956,5.373,5.373,0,0,0-1.3-.835,16.142,16.142,0,0,0-5.773-.91c-.4,0-.822.009-1.282.029a17.581,17.581,0,0,0-4.266.874,15,15,0,0,1-4.283.827c-.158,0-.316,0-.472-.014h-.065a1.769,1.769,0,0,0-.978.353l-.073.048a1.4,1.4,0,0,1-.723.306.677.677,0,0,1-.247-.048c-2.161-.835-3.359-1.927-3.561-3.247-.427-2.783,3.575-5.977,5.967-7.885.439-.351.854-.682,1.152-.942a34.193,34.193,0,0,0,6.837-9.695,21.81,21.81,0,0,0,2.164-7.7,12.868,12.868,0,0,0-1.857-7.853c-1.873-3.008-2.4-5.221-1.7-7.174.653-1.819,2.3-3.277,4.377-5.124a37.225,37.225,0,0,0,7.586-8.509,43.954,43.954,0,0,0,4-7.88,43.911,43.911,0,0,0,4.012,7.876,37.277,37.277,0,0,0,7.619,8.507c2.092,1.848,3.743,3.306,4.4,5.125.7,1.953.179,4.165-1.7,7.174a12.821,12.821,0,0,0-1.867,7.854,21.733,21.733,0,0,0,2.173,7.7,34.183,34.183,0,0,0,6.868,9.693c.291.253.682.564,1.135.924l.022.018c2.4,1.908,6.421,5.1,5.994,7.883-.2,1.321-1.406,2.414-3.578,3.25a.685.685,0,0,1-.25.048,1.413,1.413,0,0,1-.726-.306l-.074-.048a1.781,1.781,0,0,0-.981-.353h-.065c-.155.009-.315.014-.475.014a15.124,15.124,0,0,1-4.3-.825,17.763,17.763,0,0,0-4.29-.875c-.468-.019-.889-.028-1.287-.028a16.3,16.3,0,0,0-5.8.91,5.392,5.392,0,0,0-1.305.833,3.4,3.4,0,0,1-1.95.958,1.7,1.7,0,0,1-.468-.067,5.934,5.934,0,0,0-1.346-.278c-.14,0-.219.03-.232.089-.215.9,14.445,8.392,15.069,8.711l0,.01a29.849,29.849,0,0,1-.606,5.079,11.981,11.981,0,0,1-1.294,3.571,3.208,3.208,0,0,1-2.43,1.777c-.6.05-.923.106-.921.158a3.3,3.3,0,0,0,1.241.108c2.017,0,6.167-.35,7.435-1.673a21.267,21.267,0,0,0,.674,13.47,38.851,38.851,0,0,0,3.524,7.555l0,.005c1.236,2.088,2.212,3.737,3.507,9.859a117.192,117.192,0,0,1,1.6,12.125c.36,3.655.7,7.1,1.234,9.637.6,2.836,1.362,4.157,2.405,4.157a1.591,1.591,0,0,0,.7-.18c2.087-1.026,3.305-1.607,4.089-1.607s1.177.555,1.829,1.535a2.438,2.438,0,0,1,.078,2.493,5.193,5.193,0,0,0,.1,4.329,20.281,20.281,0,0,0,2.975,5.029c1.367,1.6,2.768,2.416,4.164,2.416a3.667,3.667,0,0,0,.946-.126,2.777,2.777,0,0,1,.706-.107,1.35,1.35,0,0,1,1.206.742l.01.014a1.312,1.312,0,0,0,1.148.73c1.045,0,2.979-1.039,6.089-3.269,3.428-2.459,5.289-3.417,6.637-3.417a4.437,4.437,0,0,1,2.471,1.021,13.674,13.674,0,0,0,5.136,2.227,26.814,26.814,0,0,0,5.649.683,10.757,10.757,0,0,0,6.048-1.522,7.288,7.288,0,0,0,3.059-4.975,27.128,27.128,0,0,0,.334-3.318v-.017c.3-5.139.587-9.993,14.625-11.381a66.008,66.008,0,0,0,13.332-2.821,30.926,30.926,0,0,1,8.845-1.748c3.7,0,7.536,1.282,12.452,4.156.5.249.977.48,1.4.684,2.18,1.048,3.753,1.8,3.9,3.077.094.808-.389,1.79-1.521,3.092a48.761,48.761,0,0,1-5.873,5.336,26.406,26.406,0,0,1-1.074,3.866c-.43,1.266-.714,2.1-.417,2.517a.99.99,0,0,0,.864.3,25.147,25.147,0,0,0,5.808-1.4,12.559,12.559,0,0,1,3.783-.5,52.572,52.572,0,0,1,5.51.427l.137.015,1.135.123a86.306,86.306,0,0,0,9.541.565,99.135,99.135,0,0,0,23.644-3.17c11.236-2.753,24.253-7.418,38.69-13.866a191.248,191.248,0,0,1,30.49-10.985,86.6,86.6,0,0,1,21.252-2.934,64.917,64.917,0,0,1,20.274,3.375c.656.2,1.311.408,1.888.589,4.761,1.5,8.872,2.786,13.577,2.786l.3,0c4.193-.05,9.048-.542,14.67-1.111h.012a327.293,327.293,0,0,1,35.445-2.074c9.022,0,18.125.407,27.829,1.245,11.165.964,23.092,2.522,35.449,4.63,17.024,2.9,31.085,4.316,42.986,4.316a167.555,167.555,0,0,0,26.053-2.19l.326-.047a159.878,159.878,0,0,1,24.828-2.143c5.026,0,10.27.27,16.032.825,20.306,1.956,80.477,5.8,156.191,9.364,49.726,2.339,143.448,6.264,212.443,6.264,6.384,0,12.478-.034,18.113-.1a1.2,1.2,0,0,0,.471.078,14.777,14.777,0,0,0,3.608-.931l.631-.208a18.324,18.324,0,0,1,5.1-1.139c1.614,0,2.5.671,2.7,2.05.182,1.212.572,1.8,1.193,1.8,1.029,0,2.594-1.559,4.576-3.532l0,0a53.165,53.165,0,0,1,4.714-4.321c1.924-1.5,3.664-2.292,5.031-2.292a2.547,2.547,0,0,1,2.066.93c1.045,1.267,1.242,3.757.57,7.2-.178.911-.151,1.492.083,1.776a.611.611,0,0,0,.505.21c1.112,0,3.49-1.722,7.088-4.328,7.1-5.145,18.99-13.755,34.3-18.305,1.425-.423,2.847-1.839,4.227-4.207a48.767,48.767,0,0,0,3.937-9.585v59.078Z" transform="translate(-28.547 -430.027)" fill="#9e6345"/>
</svg>
