<svg xmlns="http://www.w3.org/2000/svg" width="1996" height="177.256" viewBox="0 0 1996 177.256">
  <path id="Castle_" data-name="Castle " d="M967.7,582.662c-9.21-6.637-6.5-1.858-14.18-.169s-13.541.432-14.687-5.811,2.087-13.028-14.89-14.714-19.619-9.134-34.469-.411c-5.75,2.9-9.03,3.155,2.081,12.188,1.147,6.244,4.8,8.365-5.157,5.279-2.9-.9-6.049-.419-10.517.061-10.9,1.169-29.627,2.338-71.541-16.466-41.349-18.552-58.764-14.544-71.683-10.537-5.547,1.72-10.265,3.44-15.692,3.376-18.069-.216-47.144-8.574-112.883,2.7-37.88,6.5-53.6,4.313-68.722,2.131-11.124-1.6-21.929-3.209-40.994-1.362-44.989,4.359-272.188,16.9-384.965,15.557-.723.315-2.6-.373-4.688-1.06-3.379-1.112-7.306-2.226-7.773.912-.756,5.075-4.94-1.753-10.436-6.055s-9.28-2.653-7.633,5.84-14.511-12.5-41.782-20.645c-3.063-.914-5.905-6.3-8.538-15.145V408.675h995.836l.07.3.07-.3H2024.547V539.6c-2.529,8.038-5.248,12.926-8.164,13.792-27.4,8.142-43.633,29.141-41.977,20.648s-2.145-10.142-7.667-5.839-9.726,11.131-10.486,6.056c-.47-3.136-4.415-2.023-7.81-.911-2.1.688-3.983,1.375-4.709,1.061-113.3,1.353-341.55-11.173-386.747-15.527-19.155-1.846-30.01-.24-41.185,1.365-15.2,2.182-30.985,4.366-69.039-2.126-66.043-11.266-95.252-2.905-113.405-2.689-5.453.065-10.193-1.654-15.764-3.374-12.979-4.005-30.475-8.011-72.015,10.544-42.112,18.808-60.927,17.64-71.876,16.472-4.489-.479-7.656-.958-10.564-.06-10,3.086-6.332.966-5.181-5.279,11.164-9.033,7.868-9.291,2.092-12.189-14.917-8.721-17.573-1.273-34.628.414s-13.809,8.472-14.96,14.716-7.038,7.5-14.755,5.813-4.993-6.467-14.245.17c-6.022,4.318-6.61,3.422-7.247,2.525-.341-.481-.7-.962-1.912-.636-3.483.932-6.449-3.483-8.085-7.32s1.191-4.761-.178-6.822-1.589-2.057-5.918.071-3.684-15.086-5.937-25.739-3.489-7.672-7.033-17.419a21.371,21.371,0,0,1-.674-13.469c-2.066,2.155-11.649,1.731-7.754,1.407,4.156-.346,4.33-10.436,4.33-10.436s-20.875-10.636-13.494-8.522c1.463.419,2.454-1.24,3.724-1.724a18.362,18.362,0,0,1,7.089-.881c3.3.141,5.947,1.873,9.063,1.686a1.727,1.727,0,0,1,1.046.352c.355.228.661.455,1.05.306,8.864-3.41-1.075-9.9-3.573-12.074s-13.424-15.26-7.175-25.249-3.515-9.872-10.314-20.805a44.266,44.266,0,0,1-4.012-7.876,44.362,44.362,0,0,1-4,7.88c-6.768,10.934-16.487,10.818-10.267,20.806s-4.657,23.076-7.144,25.25-12.38,8.664-3.558,12.074c.386.149.69-.078,1.044-.306a1.718,1.718,0,0,1,1.043-.352c3.1.187,5.735-1.545,9.022-1.687a18.194,18.194,0,0,1,7.055.881c1.264.483,2.251,2.143,3.706,1.724,7.348-2.115-13.432,8.523-13.432,8.523s.172,10.089,4.309,10.435c3.876.325-5.662.749-7.718-1.4a21.464,21.464,0,0,1-.672,13.469c-3.529,9.748-4.759,6.767-7,17.42s-1.6,27.868-5.912,25.739-4.527-2.13-5.891-.07,1.45,2.984-.178,6.821-4.581,8.252-8.048,7.321a1.445,1.445,0,0,0-1.905.636,1.309,1.309,0,0,1-1.151.743C972.86,585.931,971.205,585.19,967.7,582.662Z" transform="translate(-28.547 -408.675)" fill="#fff"/>
</svg>
