<svg xmlns="http://www.w3.org/2000/svg" width="1978.218" height="336.719" viewBox="0 0 1978.218 336.719">
  <path id="Wave" d="M198.876,310.719H-1779.249V40.293c.016,0,.184,0,.449,0,.587,0,1.723.006,3.037.013l1.364.007c1.784.01,4.054.021,5.791.021,1.849,0,2.81-.012,2.937-.037a828.916,828.916,0,0,1,84.819-12.168c38.091-3.62,79.806-5.456,123.988-5.456,115.864,0,249.376,12.461,396.828,37.037,119.064,19.844,207.02,33.02,276.8,41.468,71.547,8.661,126.669,12.695,173.474,12.695,22.674,0,43.6-.941,63.984-2.876,18.915-1.8,37.576-4.478,57.05-8.2,17.038-3.257,34.992-7.35,56.5-12.882,19.448-5,40.277-10.789,62.328-16.917l.017,0,.012,0c15.252-4.238,31.023-8.621,48.228-13.28,29.814-8.075,62.159-15.452,96.136-21.928C-291.15,31.23-255.007,25.584-218.081,21c37.751-4.691,76.537-8.3,115.281-10.732C-62.835,7.756-22.56,6.485,16.906,6.485a1683.73,1683.73,0,0,1,181.97,9.525ZM-432.67,107.705c-5.344,1.7-8.583,2.963-8.666,3.391a.015.015,0,0,0,0,.013c.005.007.017.009.035.009a50.892,50.892,0,0,0,5.06-1.958l.014-.006.1-.041Q-434.6,108.49-432.67,107.705ZM-1355.6,80.049c23.489.95,43.37,5.029,59.091,12.126a80.353,80.353,0,0,1,23.255,15.459l.01.009c.908.841,1.626,1.506,2.166,1.9a10.172,10.172,0,0,0,5.41,1.482,11.777,11.777,0,0,0,6.113-1.7,7.723,7.723,0,0,0,3.564-4.47,7.426,7.426,0,0,0-1.3-6.042c-1.578-2.378-4.339-4.695-8.206-6.886-21.335-11.3-49.171-17.031-82.735-17.031a371.771,371.771,0,0,0-61.279,5.483c-8.934,1.5-16.083,2.988-20.684,3.972h0c-4.506.6-7.272,1.157-7.4,1.487a.012.012,0,0,0,0,.012c.007.01.03.014.072.014.334,0,1.8-.317,4.224-.844l.012,0c.875-.19,1.908-.414,3.089-.667h0C-1424.107,83.543-1400.717,80.837-1355.6,80.049Zm3.928-18.92c38.319,1.451,70.747,7.785,96.384,18.828,20.9,9,31.97,18.8,37.919,24.069l.005,0c1.487,1.316,2.661,2.356,3.544,2.977a17.153,17.153,0,0,0,8.809,2.3,19.873,19.873,0,0,0,10.08-2.714,12.037,12.037,0,0,0,5.781-7.116,9.472,9.472,0,0,0,.033-4.433,13.858,13.858,0,0,0-2.287-4.908c-2.586-3.663-7.058-7.23-13.293-10.6-34.709-17.55-79.984-26.448-134.567-26.448-31.147,0-64.872,2.9-100.238,8.607-14.622,2.361-26.336,4.69-33.876,6.237h0c11.01-1.41,26.87-2.8,44.658-3.9C-1405.626,62.6-1379.7,61.618-1351.674,61.129Zm1066.809,12.82a298.935,298.935,0,0,0-56.149,5.808,446.752,446.752,0,0,0-49.758,12.776c-20.351,6.436-36.564,13.009-41.891,15.169l0,0c7.227-2.291,35.046-10.583,89.642-21.2a259.731,259.731,0,0,1,34.492-2.467c18.423,0,34.816,2.414,48.724,7.176a96.622,96.622,0,0,1,22.66,11.151l.012.007c1.284.828,2.3,1.482,3.04,1.85a11.952,11.952,0,0,0,4.506.853,14.675,14.675,0,0,0,8.261-2.652,10.265,10.265,0,0,0,4.462-6.46,8.744,8.744,0,0,0-2.469-7.369c-2.4-2.7-6.355-5.035-11.758-6.952a154.141,154.141,0,0,0-26.327-5.908A202.569,202.569,0,0,0-284.865,73.949ZM-452.608,96.015c-8.728,2.719-14.021,4.742-14.16,5.412a.022.022,0,0,0,0,.02c.008.01.026.014.054.014a85.134,85.134,0,0,0,8.225-3.108C-456.7,97.642-454.78,96.875-452.608,96.015Zm244.454-54.734a445.161,445.161,0,0,0-46.722,2.587c-14.686,1.56-30.079,3.853-45.751,6.818a756.912,756.912,0,0,0-82.3,20.686c-33.882,10.472-60.829,21.138-69.684,24.644,13.056-4.067,32.014-9.145,53.382-14.3,27.726-6.688,58.988-13.423,92.919-20.019a437.607,437.607,0,0,1,59.187-4.333,293.917,293.917,0,0,1,44.483,3.191,207.5,207.5,0,0,1,32.6,7.624A157.021,157.021,0,0,1-134.07,85.029l.024.015c2.078,1.275,3.72,2.281,4.922,2.844a19.984,19.984,0,0,0,7.141,1.271,23.975,23.975,0,0,0,7.266-1.153,24.619,24.619,0,0,0,6.477-3.146,19.685,19.685,0,0,0,4.876-4.67,13.459,13.459,0,0,0,2.464-5.724,11.449,11.449,0,0,0-.494-5.6,16.015,16.015,0,0,0-3.621-5.735c-3.885-4.113-10.249-7.66-18.914-10.544a256.371,256.371,0,0,0-41.219-8.669A337.59,337.59,0,0,0-208.154,41.281Zm81.28-9.877c10.618,0,22.406.448,35.038,1.331,18.044,2.942,32.99,9.456,44.423,19.362a72.846,72.846,0,0,1,16.42,20.751c.62,1.107,1.11,1.981,1.49,2.515a5.9,5.9,0,0,0,4.587,2.257,6.753,6.753,0,0,0,3.981-1.383,9.278,9.278,0,0,0,2.972-3.8,12.555,12.555,0,0,0,.5-8.059,23.669,23.669,0,0,0-5.98-10.237A85.284,85.284,0,0,0-41.13,40.481a96.407,96.407,0,0,0-19.548-8.556,134.1,134.1,0,0,0-40.191-5.681,203.687,203.687,0,0,0-37.678,3.726c-4.881.924-8.8,1.823-11.321,2.418A213.254,213.254,0,0,1-126.875,31.4Zm-1346.5,36.531c-7.355.944-11.868,1.814-12.074,2.329a.019.019,0,0,0,0,.018c.01.015.048.023.117.023.549,0,2.961-.5,6.958-1.335l.057-.012q2.177-.453,4.94-1.023ZM-149.868,32.388c-3.541.4-5.734.872-5.865,1.269a.02.02,0,0,0,0,.02c.01.014.039.02.089.02a30.2,30.2,0,0,0,3.3-.718l.021-.005c.678-.163,1.522-.367,2.449-.585ZM-581.815,93.137h0s0,0-.007,0c-.094-.163.605-1.438,1.823-3.327-.278.523-.519.981-.761,1.443A14.08,14.08,0,0,1-581.815,93.137Zm1.828-3.35h0c1.528-2.881,3.942-7.327,7.25-12.661a174.854,174.854,0,0,1,12.331-17.505A117.636,117.636,0,0,1-543.5,42.3,68.844,68.844,0,0,1-522.5,30.194a19.843,19.843,0,0,1,5.639-1.043c2.033,0,3.284.656,3.431,1.8.167,1.3-1.245,3.116-3.817,3.787l-.271.048c-15.46,2.7-30.089,15.217-39.638,25.238C-571.729,77.386-578.316,87.194-579.987,89.787Zm36.159-2.185c-.015,0-.023-.007-.024-.019-.041-.489,3.007-2.727,7.954-5.841-1.258.951-2.377,1.8-3.276,2.485l-.012.009A42.51,42.51,0,0,1-543.828,87.6Zm7.948-5.872v0c4.753-3.59,12.165-9.111,21.613-15.586,10.774-7.383,21.682-14.272,32.422-20.477a369.308,369.308,0,0,1,61.518-28.83,249.173,249.173,0,0,1,34.319-9.5,182.654,182.654,0,0,1,35.141-3.6,148.7,148.7,0,0,1,15.7.819c7.2.983,12.678,2.571,16.292,4.719a10.987,10.987,0,0,1,3.477,3.019,4.7,4.7,0,0,1,.932,3.027,5.6,5.6,0,0,1-3.029,4.235,13.765,13.765,0,0,1-7.036,1.761,18.168,18.168,0,0,1-3.262-.3l-.689-.184a98.426,98.426,0,0,0-10.762-2.339,128.17,128.17,0,0,0-20.154-1.5,194.468,194.468,0,0,0-37.529,3.969,311.875,311.875,0,0,0-52.549,15.771C-502.842,61.609-529.1,77.463-535.88,81.73ZM198.932,16.014l-.055,0c-12.509-3.944-13.865-4.436-13.867-4.464h0c.157,0,3.82,1.106,7.4,2.233A64.3,64.3,0,0,1,198.969,16C198.968,16.011,198.956,16.014,198.932,16.014Zm-1769.742-3.4a.029.029,0,0,1-.022-.006.014.014,0,0,1,0-.011c.042-.337,2.494-1.474,6.4-2.966q-1.458.7-2.6,1.254l-.047.023-.008,0A35.462,35.462,0,0,1-1570.811,12.613Zm-61.9-2.273a.006.006,0,0,1-.005,0,9.869,9.869,0,0,1,2.005-2.14c-.306.335-.582.639-.838.922A11.983,11.983,0,0,1-1632.707,10.341Zm68.3-.72v0c4.252-2.038,17.193-8.239,33.578-14.344a311.981,311.981,0,0,1,39.362-11.919,201.133,201.133,0,0,1,44.287-5.418,123.493,123.493,0,0,1,34.159,4.485c4.705,1.507,8.228,3.2,10.47,5.027,2.385,1.944,2.7,3.54,2.545,4.537-.3,1.954-2.723,3.318-5.879,3.319a12.62,12.62,0,0,1-4.325-.8l-.456-.212a74.239,74.239,0,0,0-14.148-4.992,130.092,130.092,0,0,0-31.509-3.5,227.866,227.866,0,0,0-41.238,4.129C-1538.424.114-1559.06,7.577-1564.412,9.621Zm-66.276-1.444v0a152.878,152.878,0,0,1,20.418-18.868,94.629,94.629,0,0,1,15.9-9.877,54.647,54.647,0,0,1,17.88-5.363c.607-.045,1.182-.068,1.711-.068a9.005,9.005,0,0,1,3.719.606c.723.344,1.109.816,1.118,1.366.016,1.048-1.449,2.259-3.578,2.323l-.1-.005-.1-.005c-.382-.02-.96-.05-1.711-.05a40.969,40.969,0,0,0-11.587,1.9,85.008,85.008,0,0,0-20.936,10.022C-1622.13.451-1628.938,6.553-1630.687,8.178Z" transform="translate(1779.249 26)" fill="#fff"/>
</svg>
