<svg xmlns="http://www.w3.org/2000/svg" width="2168.219" height="336.719" viewBox="0 0 2168.219 336.719">
  <path id="Soustraction_8" data-name="Soustraction 8" d="M-8516.886-151.281H-10685V-421.707c.019,0,.2,0,.492,0,.645,0,1.889.006,3.33.013l1.494.007c1.955.01,4.443.021,6.348.021,2.026,0,3.079-.012,3.219-.037,27.967-5.151,59.247-9.245,92.966-12.169,41.749-3.62,87.471-5.456,135.9-5.456,126.992,0,273.327,12.461,434.942,37.036,130.5,19.844,226.9,33.021,303.384,41.467,78.419,8.661,138.836,12.695,190.136,12.695,24.852,0,47.792-.941,70.129-2.876,20.731-1.8,41.187-4.478,62.529-8.2,18.674-3.256,38.354-7.35,61.932-12.882,21.314-5,44.144-10.789,68.313-16.917l.019,0,.014,0c16.718-4.238,34-8.621,52.859-13.28,32.678-8.075,68.13-15.453,105.37-21.927,37.656-6.548,77.271-12.194,117.742-16.782,41.378-4.691,83.889-8.3,126.354-10.732,43.8-2.507,87.945-3.778,131.2-3.778,68.941,0,136.046,3.2,199.447,9.525Zm-692.2-203.014c-5.857,1.7-9.408,2.963-9.5,3.391a.014.014,0,0,0,0,.013c.006.007.017.009.037.009.3,0,2.275-.737,5.547-1.958l.014-.006.11-.041Q-9211.2-353.51-9209.088-354.295Zm-1011.576-27.656c25.744.95,47.535,5.029,64.766,12.126a88.808,88.808,0,0,1,25.487,15.459l.012.009c1,.841,1.781,1.506,2.373,1.9a11.972,11.972,0,0,0,5.93,1.482,13.858,13.858,0,0,0,6.7-1.7,7.885,7.885,0,0,0,3.906-4.47,6.912,6.912,0,0,0-1.428-6.042c-1.729-2.378-4.755-4.695-8.993-6.886-23.386-11.3-53.895-17.031-90.683-17.031a445.624,445.624,0,0,0-67.165,5.483c-9.792,1.5-17.627,2.988-22.67,3.972h0c-4.939.6-7.971,1.157-8.108,1.487a.016.016,0,0,0,0,.012c.008.01.033.014.079.014.366,0,1.971-.318,4.628-.844l.015,0c.959-.19,2.091-.414,3.386-.667h0C-10295.75-378.457-10270.113-381.163-10220.664-381.951Zm4.3-18.92c42,1.451,77.543,7.785,105.642,18.828,22.906,9,35.042,18.8,41.562,24.069l.006,0c1.629,1.316,2.916,2.356,3.885,2.977a20.206,20.206,0,0,0,9.654,2.3,23.4,23.4,0,0,0,11.048-2.714c3.317-1.812,5.566-4.339,6.336-7.116a8.66,8.66,0,0,0,.037-4.433,13.335,13.335,0,0,0-2.507-4.908c-2.834-3.663-7.735-7.23-14.569-10.6-38.044-17.55-87.666-26.448-147.491-26.448-34.139,0-71.1,2.9-109.866,8.607-16.025,2.361-28.866,4.69-37.13,6.237h0c12.069-1.41,29.453-2.8,48.947-3.9C-10275.493-399.4-10247.081-400.381-10216.36-400.871Zm1169.272,12.82a358.049,358.049,0,0,0-61.542,5.808,528.37,528.37,0,0,0-54.537,12.776c-22.306,6.436-40.074,13.009-45.914,15.169l0,0c7.921-2.291,38.412-10.583,98.252-21.2a311.583,311.583,0,0,1,37.8-2.467c20.192,0,38.16,2.414,53.4,7.176a110.2,110.2,0,0,1,24.836,11.151l.013.007c1.407.828,2.519,1.482,3.332,1.85a14.223,14.223,0,0,0,4.94.853,17.161,17.161,0,0,0,9.053-2.652,10.29,10.29,0,0,0,4.891-6.46c.475-2.518-.46-5.066-2.706-7.369-2.629-2.7-6.964-5.035-12.887-6.952a182.874,182.874,0,0,0-28.855-5.908A243.065,243.065,0,0,0-9047.088-388.051Zm-183.854,22.067c-9.566,2.719-15.367,4.742-15.521,5.412a.021.021,0,0,0,0,.02.085.085,0,0,0,.06.014c.481,0,3.694-1.17,9.016-3.108C-9235.43-364.358-9233.322-365.125-9230.942-365.984Zm267.934-54.734c-16.268,0-33.5.871-51.211,2.587-16.1,1.56-32.968,3.853-50.145,6.818a895.608,895.608,0,0,0-90.2,20.686c-37.137,10.472-66.671,21.138-76.378,24.644,14.311-4.068,35.09-9.145,58.51-14.3,30.388-6.688,64.653-13.423,101.844-20.019a524.9,524.9,0,0,1,64.871-4.333,352.56,352.56,0,0,1,48.756,3.191,245.94,245.94,0,0,1,35.731,7.624,179.774,179.774,0,0,1,39.421,16.85l.025.014c2.278,1.275,4.077,2.281,5.4,2.844a23.784,23.784,0,0,0,7.827,1.271,28.585,28.585,0,0,0,7.963-1.153,28.143,28.143,0,0,0,7.1-3.146,20.842,20.842,0,0,0,5.345-4.669,12.891,12.891,0,0,0,2.7-5.724,10.5,10.5,0,0,0-.541-5.6,15.881,15.881,0,0,0-3.969-5.735c-4.258-4.113-11.234-7.66-20.731-10.544a304.611,304.611,0,0,0-45.178-8.669A405.1,405.1,0,0,0-8963.009-420.718Zm89.086-9.877c11.637,0,24.559.448,38.4,1.331,19.777,2.942,36.159,9.456,48.689,19.363a74.068,74.068,0,0,1,18,20.751c.68,1.107,1.218,1.981,1.633,2.515a6.71,6.71,0,0,0,5.029,2.257,7.867,7.867,0,0,0,4.363-1.383,9.462,9.462,0,0,0,3.257-3.8,11.522,11.522,0,0,0,.548-8.059c-.917-3.419-3.123-6.863-6.554-10.237a92.919,92.919,0,0,0-19.386-13.662,111.074,111.074,0,0,0-21.427-8.557c-13.124-3.769-27.944-5.68-44.049-5.68a244.049,244.049,0,0,0-41.3,3.726c-5.351.924-9.645,1.823-12.407,2.418C-8895.528-429.98-8887.47-430.6-8873.923-430.6Zm-1475.832,36.531c-8.06.944-13.007,1.814-13.234,2.329a.017.017,0,0,0,0,.018c.012.015.053.023.129.023.6,0,3.245-.5,7.627-1.335l.063-.012q2.385-.453,5.413-1.023Zm1450.631-35.547c-3.883.4-6.285.872-6.43,1.269a.017.017,0,0,0,0,.02c.01.013.042.02.095.02a35.837,35.837,0,0,0,3.622-.718l.024-.005c.742-.163,1.667-.367,2.684-.585Zm-473.436,60.749h0a.007.007,0,0,1-.007,0c-.1-.163.663-1.438,2-3.327-.3.523-.568.981-.835,1.443A13.728,13.728,0,0,1-9372.56-368.863Zm2-3.351h0c1.674-2.88,4.32-7.327,7.947-12.661a175.439,175.439,0,0,1,13.515-17.505,123.554,123.554,0,0,1,18.533-17.315,77.548,77.548,0,0,1,23.012-12.111,23.624,23.624,0,0,1,6.18-1.043c2.229,0,3.6.656,3.76,1.8.184,1.3-1.364,3.116-4.183,3.787l-.3.048c-16.944,2.7-32.979,15.217-43.445,25.238C-9361.5-384.614-9368.723-374.806-9370.556-372.213Zm39.631-2.185a.024.024,0,0,1-.026-.019c-.044-.489,3.3-2.727,8.718-5.841-1.378.951-2.6,1.8-3.59,2.485l-.013.009A46.6,46.6,0,0,1-9330.925-374.4Zm8.714-5.872h0c5.208-3.59,13.333-9.112,23.689-15.586,11.808-7.383,23.763-14.272,35.534-20.477a423.679,423.679,0,0,1,67.428-28.83,293.973,293.973,0,0,1,37.614-9.5,218.8,218.8,0,0,1,38.516-3.6c5.839,0,11.63.276,17.213.819,7.887.983,13.895,2.571,17.856,4.719a11.776,11.776,0,0,1,3.812,3.019,4.423,4.423,0,0,1,1.021,3.027c-.12,1.613-1.3,3.117-3.318,4.235a16.244,16.244,0,0,1-7.714,1.761,21.778,21.778,0,0,1-3.575-.3l-.754-.185a116.842,116.842,0,0,0-11.795-2.339,153.741,153.741,0,0,0-22.092-1.5,232.9,232.9,0,0,0-41.132,3.969,366.839,366.839,0,0,0-57.6,15.77C-9286-400.39-9314.783-384.536-9322.211-380.27Zm805.387-65.716-.061,0c-13.711-3.944-15.2-4.436-15.2-4.464h0c.172,0,4.186,1.106,8.111,2.233a75.048,75.048,0,0,1,7.188,2.225C-8516.784-445.989-8516.8-445.986-8516.824-445.986Zm-1939.72-3.4a.032.032,0,0,1-.023-.006.013.013,0,0,1,0-.011c.045-.337,2.733-1.474,7.015-2.966q-1.6.7-2.853,1.254l-.052.023-.009,0A40.769,40.769,0,0,1-10456.544-449.386Zm-67.841-2.272a.006.006,0,0,1-.006,0,10.223,10.223,0,0,1,2.2-2.14c-.336.336-.638.639-.919.922A12.544,12.544,0,0,1-10524.385-451.659Zm74.854-.72,0,0c4.662-2.038,18.846-8.24,36.8-14.344a366.858,366.858,0,0,1,43.143-11.919,240.65,240.65,0,0,1,48.541-5.418,147.592,147.592,0,0,1,37.44,4.485c5.158,1.507,9.018,3.2,11.477,5.027,2.613,1.945,2.959,3.54,2.789,4.537-.334,1.954-2.983,3.318-6.444,3.319a15.015,15.015,0,0,1-4.74-.8c-.151-.063-.317-.134-.5-.211a86.541,86.541,0,0,0-15.507-4.992,155.694,155.694,0,0,0-34.536-3.5,272.971,272.971,0,0,0-45.2,4.129C-10421.046-461.885-10443.664-454.423-10449.53-452.379Zm-72.641-1.443h0a162.859,162.859,0,0,1,22.378-18.868,105.9,105.9,0,0,1,17.43-9.877,64.261,64.261,0,0,1,19.6-5.363c.666-.045,1.3-.068,1.875-.068a10.722,10.722,0,0,1,4.077.606c.793.343,1.216.816,1.225,1.366.018,1.048-1.589,2.259-3.921,2.323l-.115-.005-.112-.005c-.419-.02-1.053-.05-1.875-.05a48.856,48.856,0,0,0-12.7,1.9,97.356,97.356,0,0,0-22.945,10.022C-10512.793-461.549-10520.254-455.447-10522.171-453.822Z" transform="translate(10685.002 488)" fill="#fff"/>
</svg>
