<svg xmlns="http://www.w3.org/2000/svg" width="483.639" height="369.329" viewBox="0 0 483.639 369.329">
  <g id="Groupe_130" data-name="Groupe 130" transform="translate(-8986.617 815.003)">
    <path id="Soustraction_5" data-name="Soustraction 5" d="M242.2,369.329h0l-.188-.007-.19-.006-.178.006-.2.007V369.3c-2.772-.1-5.573-.21-8.321-.327h17.4c-3.047.128-5.847.238-8.321.327v.026Zm-35.3-1.744h0a841.191,841.191,0,0,1-87.177-9.751c-9.956-1.706-19.5-3.606-28.366-5.649v-40.86a67.8,67.8,0,0,0-4.9-13.613c-3.144-6.422-8.618-14.478-16.844-16.393a14.469,14.469,0,0,0-3.275-.391c-6.929,0-11.5,5.606-14.11,10.31a44.459,44.459,0,0,0-4.051,10.309v37.582c-4.019-1.622-7.655-3.256-10.809-4.856a53.566,53.566,0,0,1-7.906-4.66c-.016-.222-.405-6.179-2.468-71.377A65.879,65.879,0,0,1,12,243.92a63.064,63.064,0,0,1-8.081-14.181A52.566,52.566,0,0,1,0,214.56L227.253,45.279,209.619,24.091V4.757s.111-.27.85-.641C219.571.714,229.5,0,236.222,0c3.123,0,5.211.161,5.6.193C242.207.161,244.3,0,247.418,0c6.725,0,16.651.714,25.752,4.117.748.374.85.638.85.641V24.091L256.387,45.279,483.639,214.56a52.507,52.507,0,0,1-3.916,15.178,63.027,63.027,0,0,1-8.082,14.181,65.857,65.857,0,0,1-15,14.316c-2.018,63.832-2.449,71.1-2.466,71.374a51.442,51.442,0,0,1-7.894,4.654c-3.183,1.615-6.839,3.256-10.866,4.879v-37.6a44.357,44.357,0,0,0-4.052-10.309c-2.613-4.7-7.182-10.31-14.11-10.31a14.474,14.474,0,0,0-3.276.391c-8.225,1.915-13.7,9.972-16.843,16.393a69.675,69.675,0,0,0-4.9,13.613v40.866c-8.8,2.026-18.26,3.913-28.123,5.607a839.01,839.01,0,0,1-86.956,9.759V327.883a35.13,35.13,0,0,0-70.26,0v39.7ZM339.329,310a8.3,8.3,0,1,0,8.3,8.3A8.313,8.313,0,0,0,339.329,310Zm-186.083,0a8.3,8.3,0,1,0,8.3,8.3A8.313,8.313,0,0,0,153.246,310Z" transform="translate(8986.617 -815.003)" fill="#fff"/>
  </g>
</svg>
