<svg xmlns="http://www.w3.org/2000/svg" xmlns:xlink="http://www.w3.org/1999/xlink" width="1920.218" height="446.414" viewBox="0 0 1920.218 446.414">
  <defs>
    <linearGradient id="linear-gradient" x1="0.5" y1="-0.309" x2="0.5" y2="1" gradientUnits="objectBoundingBox">
      <stop offset="0" stop-color="#029cc7"/>
      <stop offset="0.925" stop-color="#edf8fb"/>
      <stop offset="1" stop-color="#fff"/>
    </linearGradient>
  </defs>
  <path id="Exclusion_4" data-name="Exclusion 4" d="M1920.128,446.414H0V66.293c.016,0,.179,0,.437,0,.539,0,1.558.005,2.738.012l.276,0,1.247.007c1.871.01,4.006.021,5.658.021,1.779,0,2.7-.012,2.824-.037A782.461,782.461,0,0,1,95.511,54.125c36.977-3.62,77.469-5.456,120.351-5.456,112.466,0,242.064,12.461,385.2,37.036,115.576,19.844,200.952,33.021,268.684,41.468,69.447,8.661,122.953,12.695,168.387,12.695,22.01,0,42.325-.941,62.108-2.876,18.362-1.8,36.476-4.478,55.377-8.2,16.538-3.256,33.966-7.35,54.847-12.882,18.876-5,39.091-10.788,60.493-16.915l.023-.007c14.8-4.236,30.1-8.616,46.827-13.284,28.942-8.075,60.338-15.453,93.318-21.927C1444.469,57.231,1479.553,51.585,1515.4,47c36.652-4.692,74.3-8.3,111.9-10.732,38.8-2.507,77.892-3.778,116.2-3.778a1586.889,1586.889,0,0,1,176.632,9.525v404.4ZM1307.1,133.7h0c-5.187,1.695-8.331,2.963-8.411,3.391a.014.014,0,0,0,0,.013c0,.006.016.009.033.009a48.249,48.249,0,0,0,4.913-1.959c1.112-.469,2.214-.933,3.461-1.454h0c7.011-2.29,34.011-10.582,87.017-21.2a244.83,244.83,0,0,1,33.481-2.467c17.883,0,33.8,2.415,47.3,7.176a92.724,92.724,0,0,1,22,11.151c1.254.833,2.241,1.489,2.962,1.857a11.31,11.31,0,0,0,4.374.853,13.965,13.965,0,0,0,7.985-2.627,10.324,10.324,0,0,0,4.352-6.409,8.872,8.872,0,0,0-2.349-7.4c-2.325-2.713-6.176-5.065-11.448-6.992a145.863,145.863,0,0,0-25.555-5.908,190.913,190.913,0,0,0-26.638-1.79,281.956,281.956,0,0,0-54.5,5.808,423.35,423.35,0,0,0-48.3,12.776c-19.767,6.439-35.5,13.011-40.671,15.171ZM411.227,106.05c22.8.95,42.1,5.03,57.358,12.126a77.939,77.939,0,0,1,22.573,15.459c.885.845,1.584,1.512,2.112,1.913a9.656,9.656,0,0,0,5.25,1.481,11.194,11.194,0,0,0,5.9-1.676,7.735,7.735,0,0,0,3.476-4.411,7.547,7.547,0,0,0-1.21-6.073c-1.526-2.4-4.217-4.73-8-6.936-20.709-11.3-47.729-17.032-80.309-17.032a350.5,350.5,0,0,0-59.484,5.485c-8.683,1.506-15.615,2.987-20.074,3.97C344.731,109.542,367.431,106.837,411.227,106.05Zm3.812-18.92c37.2,1.451,68.672,7.785,93.558,18.828,20.287,9,31.034,18.8,36.808,24.071,1.444,1.317,2.584,2.357,3.444,2.98a16.263,16.263,0,0,0,8.544,2.3h.006a18.882,18.882,0,0,0,9.726-2.678,12.055,12.055,0,0,0,5.639-7.029,9.709,9.709,0,0,0,.085-4.451,13.918,13.918,0,0,0-2.191-4.937c-2.5-3.689-6.86-7.282-12.954-10.677-33.691-17.55-77.639-26.448-130.621-26.448-30.234,0-62.969,2.9-97.3,8.606-14.214,2.365-25.575,4.692-32.884,6.237,10.683-1.41,26.078-2.8,43.349-3.9C362.673,88.595,387.835,87.618,415.04,87.13Zm872.706,34.885c-8.472,2.719-13.61,4.742-13.745,5.413a.021.021,0,0,0,0,.019.069.069,0,0,0,.054.015,81.15,81.15,0,0,0,7.974-3.1l.045-.019q2.495-1.026,5.669-2.323h0Zm237.287-54.733a419.615,419.615,0,0,0-45.352,2.587c-14.255,1.559-29.2,3.853-44.41,6.818a717.14,717.14,0,0,0-79.884,20.686c-32.872,10.466-59.04,21.136-67.639,24.642,12.673-4.067,31.075-9.145,51.814-14.3,26.913-6.688,57.259-13.423,90.2-20.018a412.546,412.546,0,0,1,57.452-4.333,277.141,277.141,0,0,1,43.177,3.191,196.5,196.5,0,0,1,31.645,7.624,150.509,150.509,0,0,1,34.913,16.85c2.026,1.28,3.627,2.292,4.8,2.859a18.9,18.9,0,0,0,6.933,1.271,22.641,22.641,0,0,0,7.022-1.143,23.62,23.62,0,0,0,6.267-3.12,19.433,19.433,0,0,0,4.734-4.635,13.741,13.741,0,0,0,2.424-5.686,11.767,11.767,0,0,0-.434-5.625,15.981,15.981,0,0,0-3.491-5.764c-3.766-4.137-9.961-7.7-18.411-10.6a242.472,242.472,0,0,0-40.011-8.669A318.2,318.2,0,0,0,1525.032,67.282ZM338.818,110.354c-4.377.6-7.063,1.157-7.185,1.489a.011.011,0,0,0,0,.011c.007.01.03.015.07.015.323,0,1.738-.316,4.082-.84l.016,0c.922-.206,1.914-.428,3.017-.671h0ZM1603.926,57.4c10.307,0,21.751.448,34.014,1.332,17.514,2.941,32.022,9.456,43.12,19.362A72.631,72.631,0,0,1,1697,98.847c.6,1.11,1.079,1.986,1.448,2.518a5.66,5.66,0,0,0,4.448,2.256c2.7,0,5.323-1.965,6.677-5.006a12.787,12.787,0,0,0,.592-8.108,23.727,23.727,0,0,0-5.834-10.364,83.142,83.142,0,0,0-17.169-13.662,92.208,92.208,0,0,0-18.975-8.557,126.636,126.636,0,0,0-39.012-5.68,192.116,192.116,0,0,0-36.573,3.726c-4.721.92-8.532,1.82-10.988,2.418A200.921,200.921,0,0,1,1603.926,57.4ZM296.9,93.936c-7.139.943-11.52,1.814-11.72,2.33a.018.018,0,0,0,0,.018c.01.015.048.023.113.023.531,0,2.867-.5,6.737-1.331,1.259-.27,2.983-.64,4.868-1.039h0ZM1581.611,58.388c-3.439.4-5.568.873-5.694,1.27a.021.021,0,0,0,0,.02c.009.013.037.019.085.019a28.661,28.661,0,0,0,3.216-.72C1579.877,58.814,1580.693,58.611,1581.611,58.388Zm-419.286,60.749h0a.008.008,0,0,1-.006,0c-.091-.165.587-1.441,1.769-3.328q-.4.782-.716,1.4l-.01.02A14.485,14.485,0,0,1,1162.325,119.137Zm1.776-3.352h0c1.482-2.879,3.824-7.324,7.036-12.66a175.023,175.023,0,0,1,11.97-17.5,116.068,116.068,0,0,1,16.414-17.314A66.366,66.366,0,0,1,1219.9,56.2a18.746,18.746,0,0,1,5.475-1.043c1.965,0,3.178.651,3.328,1.787.172,1.3-1.2,3.125-3.7,3.8l-.245.045-.018,0c-15.007,2.7-29.207,15.217-38.476,25.238C1172.118,103.384,1165.724,113.193,1164.1,115.785Zm35.1-2.184c-.014,0-.023-.006-.024-.018-.041-.489,2.917-2.727,7.719-5.842-1.216.947-2.306,1.8-3.181,2.486l-.012.009A41.386,41.386,0,0,1,1199.2,113.6Zm7.713-5.871v0c4.619-3.593,11.82-9.118,20.981-15.586,10.458-7.383,21.047-14.273,31.471-20.476a353.783,353.783,0,0,1,59.716-28.83,236.313,236.313,0,0,1,33.313-9.5,172.3,172.3,0,0,1,34.11-3.6,140.169,140.169,0,0,1,15.243.819c6.995.984,12.32,2.575,15.829,4.727a10.731,10.731,0,0,1,3.37,3.024,4.794,4.794,0,0,1,.895,3.031,5.615,5.615,0,0,1-2.948,4.224,13.064,13.064,0,0,1-6.821,1.755,17.181,17.181,0,0,1-3.166-.3l-.47-.13-.2-.055a93.015,93.015,0,0,0-10.446-2.339,120.819,120.819,0,0,0-19.563-1.5,183.455,183.455,0,0,0-36.428,3.969,296.049,296.049,0,0,0-51.008,15.771C1239,87.6,1213.5,103.462,1206.913,107.731Zm713.269-65.717-.053,0c-12.145-3.945-13.459-4.436-13.46-4.464h0c.154,0,3.643,1.085,7.183,2.233A61.025,61.025,0,0,1,1920.218,42C1920.217,42.011,1920.2,42.014,1920.182,42.014Zm-1717.853-3.4a.029.029,0,0,1-.022-.006.012.012,0,0,1,0-.01c.039-.341,2.361-1.451,6.211-2.967q-1.38.682-2.472,1.227l-.118.059A33.8,33.8,0,0,1,202.328,38.614Zm-60.083-2.272h0l0,0a9.571,9.571,0,0,1,1.95-2.145l-.711.8-.095.107-.007.008A11.969,11.969,0,0,1,142.245,36.341Zm66.295-.72v0c4.125-2.037,16.678-8.236,32.592-14.343A296.28,296.28,0,0,1,279.339,9.357a189.8,189.8,0,0,1,42.989-5.418,116.576,116.576,0,0,1,33.158,4.485c4.581,1.511,8.007,3.208,10.183,5.043,2.313,1.95,2.607,3.549,2.447,4.546a3.419,3.419,0,0,1-1.835,2.385,7.928,7.928,0,0,1-3.869.909,11.93,11.93,0,0,1-4.2-.8l-.356-.17-.087-.042A70.717,70.717,0,0,0,344.039,15.3a122.741,122.741,0,0,0-30.585-3.5,214.938,214.938,0,0,0-40.03,4.13C233.785,26.109,213.739,33.575,208.54,35.621Zm-64.331-1.446h0A150.119,150.119,0,0,1,164.029,15.3,91.377,91.377,0,0,1,179.464,5.43,51.889,51.889,0,0,1,196.817.068C197.4.024,197.961,0,198.478,0a8.511,8.511,0,0,1,3.609.606,1.618,1.618,0,0,1,1.085,1.365c.016,1.048-1.406,2.26-3.473,2.323l-.205-.01c-.375-.02-.935-.05-1.654-.05a38.724,38.724,0,0,0-11.248,1.9,81.458,81.458,0,0,0-20.325,10.023C152.523,26.443,145.908,32.549,144.209,34.175Z" transform="translate(0 -0.001)" fill="url(#linear-gradient)"/>
</svg>
