<svg xmlns="http://www.w3.org/2000/svg" xmlns:xlink="http://www.w3.org/1999/xlink" width="2016.428" height="213" viewBox="0 0 2016.428 213">
  <defs>
    <filter id="Intersection_3" x="0" y="0" width="2016.428" height="213" filterUnits="userSpaceOnUse">
      <feOffset input="SourceAlpha"/>
      <feGaussianBlur stdDeviation="10" result="blur"/>
      <feFlood flood-opacity="0.161"/>
      <feComposite operator="in" in2="blur"/>
      <feComposite in="SourceGraphic"/>
    </filter>
  </defs>
  <g id="Groupe_145" data-name="Groupe 145" transform="translate(-6941.5 2234.5)">
    <g transform="matrix(1, 0, 0, 1, 6941.5, -2234.5)" filter="url(#Intersection_3)">
      <path id="Intersection_3-2" data-name="Intersection 3" d="M1038.141,585.294a2.906,2.906,0,0,1-.337-.434,1.386,1.386,0,0,0-1.847-.637c-3.361.93-6.226-3.487-7.807-7.324s1.146-4.761-.177-6.821-1.535-2.059-5.711.067-3.565-15.088-5.746-25.743-3.373-7.673-6.8-17.423a22.1,22.1,0,0,1-.659-13.469c-1.993,2.153-11.242,1.723-7.483,1.4,4.012-.344,4.173-10.432,4.173-10.432s-12.406-6.556-14.31-8.357c-1.9,1.8-14.31,8.357-14.31,8.357s.162,10.088,4.173,10.432c3.758.321-5.491.752-7.483-1.4a22.107,22.107,0,0,1-.659,13.47c-3.426,9.75-4.619,6.768-6.8,17.423s-1.569,27.868-5.746,25.743-4.388-2.128-5.711-.067,1.4,2.983-.177,6.821-4.445,8.254-7.807,7.324a1.387,1.387,0,0,0-1.848.637,2.9,2.9,0,0,1-.337.434h-1.995a25.453,25.453,0,0,1-4.659-2.954c-8.926-6.633-6.3-1.854-13.748-.163s-13.13.439-14.238-5.8,2.031-13.028-14.43-14.705-19.018-9.123-33.421-.392c-5.577,2.9-8.758,3.16,2.011,12.186,1.108,6.243,4.65,8.362-5,5.281-2.809-.9-5.868-.414-10.2.068-10.57,1.176-28.731,2.351-69.353-16.428-40.077-18.527-56.966-14.514-69.494-10.5-5.381,1.724-9.958,3.448-15.221,3.386-17.519-.205-45.706-8.547-109.453,2.758-36.734,6.514-51.971,4.341-66.637,2.166-10.785-1.6-21.26-3.2-39.746-1.338-43.625,4.381-263.927,17.045-373.276,15.761-.7.315-2.521-.371-4.544-1.057-3.276-1.111-7.085-2.222-7.539.916-.735,5.074-4.789-1.751-10.116-6.05s-9-2.649-7.4,5.844-14.064-12.5-40.5-20.622c-9.427-2.9-16.677-50.874-22.106-111.425v-9.925H1970.085c-5.515,65.159-13.033,118.3-22.97,121.351-26.437,8.124-42.094,29.113-40.5,20.622s-2.076-10.143-7.4-5.844-9.381,11.124-10.116,6.05c-.455-3.138-4.264-2.027-7.539-.916-2.023.687-3.844,1.372-4.544,1.057-109.349,1.284-329.651-11.38-373.276-15.762-18.487-1.858-28.962-.258-39.746,1.339-14.666,2.174-29.9,4.348-66.636-2.166-63.748-11.306-91.934-2.964-109.454-2.758-5.264.062-9.841-1.662-15.222-3.386-12.528-4.012-29.417-8.025-69.494,10.5-40.623,18.779-58.783,17.6-69.354,16.428-4.336-.482-7.4-.963-10.2-.068-9.653,3.081-6.111.962-5-5.281,10.768-9.026,7.588-9.285,2.011-12.186-14.4-8.731-16.961-1.284-33.422.392s-13.322,8.464-14.43,14.705-6.788,7.5-14.238,5.8-4.822-6.47-13.748.163a25.5,25.5,0,0,1-4.658,2.954Zm-51.578-91.067c1.226.482,2.182,2.142,3.593,1.721a7.161,7.161,0,0,1,1.154-.27,1.014,1.014,0,0,1,.256,0,7.161,7.161,0,0,1,1.154.27c1.411.421,2.368-1.238,3.593-1.723a17.139,17.139,0,0,1,6.841-.876c3.186.143,5.741,1.876,8.748,1.691a1.625,1.625,0,0,1,1.01.352c.343.229.638.456,1.013.306,8.554-3.4-1.042-9.9-3.455-12.074s-12.966-15.27-6.941-25.254-3.4-9.874-9.967-20.811c-.8-1.336-1.508-2.605-2.124-3.834-.617,1.228-1.322,2.5-2.124,3.834-6.568,10.937-15.992,10.827-9.967,20.811s-4.527,23.079-6.94,25.254-12.01,8.67-3.456,12.074c.374.15.67-.077,1.013-.306a1.626,1.626,0,0,1,1.011-.352c3.007.185,5.562-1.548,8.749-1.691.375-.017.8-.03,1.256-.03A15.547,15.547,0,0,1,986.564,494.227Z" transform="translate(16.34 -402.29)" fill="#fff"/>
    </g>
  </g>
</svg>
