<svg xmlns="http://www.w3.org/2000/svg" width="1920.219" height="336.719" viewBox="0 0 1920.219 336.719">
  <g id="Group_98" data-name="Group 98" transform="translate(-38.594 -1233.873)">
    <path id="Exclusion_2" data-name="Exclusion 2" d="M1920.128,0H0V270.425c.016,0,.178,0,.436,0,.57,0,1.672-.006,2.948-.013l1.324-.007c1.731-.01,3.935-.021,5.621-.021,1.8,0,2.728.012,2.851.037a782.51,782.51,0,0,0,82.332,12.169c36.974,3.62,77.466,5.456,120.352,5.456,112.467,0,242.065-12.461,385.193-37.037,115.574-19.844,200.95-33.02,268.684-41.467,69.449-8.661,122.956-12.695,168.388-12.695,22.009,0,42.325.941,62.108,2.876,18.361,1.8,36.475,4.478,55.377,8.2,16.538,3.257,33.967,7.35,54.847,12.882,18.878,5,39.1,10.789,60.5,16.917l.016,0,.012,0c14.8,4.238,30.114,8.62,46.813,13.28,28.94,8.075,60.337,15.452,93.318,21.928,33.349,6.547,68.432,12.194,104.275,16.782,36.644,4.691,74.293,8.3,111.9,10.732,38.793,2.507,77.887,3.778,116.2,3.778a1586.922,1586.922,0,0,0,176.635-9.525ZM1307.1,203.014c-5.187-1.7-8.332-2.963-8.412-3.391a.015.015,0,0,1,0-.013c.005-.007.016-.01.034-.01a48.5,48.5,0,0,1,4.912,1.958l.013.006.1.041Q1305.225,202.229,1307.1,203.014ZM411.226,230.67c22.8-.95,42.1-5.03,57.358-12.126a77.959,77.959,0,0,0,22.573-15.459l.009-.009c.882-.842,1.578-1.506,2.1-1.9a9.657,9.657,0,0,1,5.251-1.482,11.18,11.18,0,0,1,5.933,1.7,7.69,7.69,0,0,1,3.459,4.47,7.6,7.6,0,0,1-1.265,6.042c-1.532,2.378-4.212,4.695-7.965,6.886-20.71,11.3-47.73,17.031-80.31,17.031a350.578,350.578,0,0,1-59.482-5.483c-8.672-1.5-15.612-2.988-20.078-3.972h0c-4.374-.6-7.059-1.157-7.181-1.487a.012.012,0,0,1,0-.012c.007-.01.029-.014.07-.014.324,0,1.745.317,4.1.844l.012,0c.849.19,1.852.414,3,.667h0C344.729,227.176,367.433,229.882,411.226,230.67Zm3.813,18.92c37.2-1.451,68.673-7.785,93.558-18.828,20.285-9,31.033-18.8,36.807-24.069l0,0c1.443-1.316,2.583-2.356,3.44-2.977a16.275,16.275,0,0,1,8.551-2.3,18.86,18.86,0,0,1,9.785,2.714,11.977,11.977,0,0,1,5.611,7.115,9.75,9.75,0,0,1,.032,4.433,14.054,14.054,0,0,1-2.22,4.908c-2.51,3.663-6.851,7.23-12.9,10.6-33.692,17.55-77.639,26.448-130.621,26.448-30.234,0-62.97-2.9-97.3-8.607-14.193-2.361-25.564-4.69-32.883-6.237h0c10.687,1.41,26.082,2.8,43.348,3.9C362.668,248.123,387.831,249.1,415.039,249.59ZM1450.57,236.77a281.968,281.968,0,0,1-54.5-5.808,423.343,423.343,0,0,1-48.3-12.776c-19.755-6.436-35.491-13.009-40.663-15.169l0,0c7.016,2.291,34.018,10.583,87.014,21.2a244.854,244.854,0,0,0,33.48,2.467c17.883,0,33.8-2.414,47.3-7.176a92.753,92.753,0,0,0,22-11.151l.011-.008c1.247-.828,2.231-1.482,2.951-1.849a11.3,11.3,0,0,1,4.374-.853,13.961,13.961,0,0,1,8.019,2.651,10.278,10.278,0,0,1,4.331,6.46,8.911,8.911,0,0,1-2.4,7.369c-2.328,2.7-6.168,5.035-11.413,6.952a145.89,145.89,0,0,1-25.556,5.908A190.954,190.954,0,0,1,1450.57,236.77ZM1287.745,214.7c-8.472-2.719-13.61-4.742-13.745-5.412a.022.022,0,0,1,0-.02c.008-.01.025-.014.053-.014a81.106,81.106,0,0,1,7.984,3.108C1283.771,213.077,1285.637,213.844,1287.745,214.7Zm237.287,54.734a419.568,419.568,0,0,1-45.352-2.587c-14.256-1.559-29.2-3.853-44.41-6.818a717.093,717.093,0,0,1-79.884-20.686c-32.888-10.472-59.046-21.139-67.641-24.644,12.673,4.067,31.076,9.145,51.817,14.3,26.913,6.688,57.259,13.423,90.195,20.019a412.549,412.549,0,0,0,57.452,4.333,277.09,277.09,0,0,0,43.178-3.191,196.472,196.472,0,0,0,31.645-7.624,150.524,150.524,0,0,0,34.911-16.849l.023-.015c2.017-1.275,3.611-2.281,4.778-2.844a18.893,18.893,0,0,1,6.932-1.271,22.648,22.648,0,0,1,7.053,1.153,23.609,23.609,0,0,1,6.287,3.145,19.37,19.37,0,0,1,4.733,4.67,13.671,13.671,0,0,1,2.392,5.724,11.775,11.775,0,0,1-.479,5.6,16.091,16.091,0,0,1-3.515,5.735c-3.771,4.113-9.948,7.66-18.36,10.544a242.53,242.53,0,0,1-40.01,8.669A318.215,318.215,0,0,1,1525.031,269.437Zm78.9,9.877c10.306,0,21.749-.448,34.01-1.331,17.515-2.942,32.023-9.456,43.121-19.362A72.622,72.622,0,0,0,1697,237.87c.6-1.107,1.077-1.981,1.447-2.515a5.664,5.664,0,0,1,4.453-2.257,6.433,6.433,0,0,1,3.864,1.383,9.243,9.243,0,0,1,2.885,3.8,12.91,12.91,0,0,1,.485,8.059,23.846,23.846,0,0,1-5.8,10.237,83.144,83.144,0,0,1-17.169,13.663,92.2,92.2,0,0,1-18.975,8.556,126.628,126.628,0,0,1-39.012,5.681,192.112,192.112,0,0,1-36.573-3.726c-4.738-.924-8.541-1.823-10.989-2.418A200.985,200.985,0,0,0,1603.928,279.314ZM296.9,242.783c-7.139-.944-11.521-1.815-11.72-2.329a.019.019,0,0,1,0-.018c.01-.015.047-.022.114-.022.533,0,2.874.5,6.754,1.335l.056.012q2.113.453,4.8,1.023ZM1581.609,278.33c-3.437-.4-5.566-.872-5.693-1.269a.021.021,0,0,1,0-.019c.01-.014.038-.02.086-.02a28.574,28.574,0,0,1,3.206.718l.021.005c.658.163,1.477.366,2.377.585Zm-419.283-60.749h0s0,0-.006,0c-.091.163.587,1.438,1.769,3.327-.27-.523-.5-.981-.739-1.443A14.212,14.212,0,0,0,1162.326,217.581Zm1.774,3.35h0c1.483,2.88,3.826,7.327,7.037,12.661a174.98,174.98,0,0,0,11.97,17.505,116.078,116.078,0,0,0,16.414,17.314,66.362,66.362,0,0,0,20.379,12.111,18.756,18.756,0,0,0,5.474,1.043c1.973,0,3.187-.656,3.33-1.8.162-1.3-1.209-3.116-3.705-3.787l-.263-.048c-15.007-2.7-29.206-15.217-38.476-25.238C1172.116,233.333,1165.723,223.524,1164.1,220.932Zm35.1,2.185c-.014,0-.023.007-.024.019-.039.488,2.919,2.727,7.721,5.841-1.221-.951-2.307-1.8-3.18-2.485l-.012-.009A41.3,41.3,0,0,0,1199.2,223.117Zm7.715,5.872h0c4.614,3.59,11.809,9.111,20.98,15.586,10.458,7.383,21.046,14.272,31.471,20.477a353.746,353.746,0,0,0,59.715,28.83,236.32,236.32,0,0,0,33.313,9.5,172.287,172.287,0,0,0,34.11,3.6,140.151,140.151,0,0,0,15.243-.819c6.985-.983,12.306-2.571,15.815-4.719a10.769,10.769,0,0,0,3.375-3.019,4.8,4.8,0,0,0,.9-3.027,5.6,5.6,0,0,0-2.94-4.235,13.055,13.055,0,0,0-6.83-1.761,17.135,17.135,0,0,0-3.167.3l-.668.185a93.151,93.151,0,0,1-10.446,2.339,120.838,120.838,0,0,1-19.563,1.5,183.441,183.441,0,0,1-36.428-3.969A296.1,296.1,0,0,1,1290.789,274C1238.984,249.109,1213.493,233.255,1206.914,228.989ZM1920.182,294.7l-.054,0c-12.143,3.945-13.458,4.436-13.46,4.464h0c.152,0,3.708-1.106,7.183-2.233a61.162,61.162,0,0,0,6.366-2.225C1920.217,294.708,1920.205,294.7,1920.182,294.7Zm-1717.855,3.4a.028.028,0,0,0-.021.006.014.014,0,0,0,0,.011c.04.337,2.421,1.474,6.213,2.966q-1.416-.7-2.527-1.254l-.045-.022-.008,0A33.926,33.926,0,0,0,202.327,298.105Zm-60.082,2.272s0,0-.005,0a9.777,9.777,0,0,0,1.946,2.14c-.3-.336-.565-.64-.814-.922A11.8,11.8,0,0,0,142.245,300.378Zm66.293.72v0c4.128,2.038,16.689,8.24,32.593,14.344a296.25,296.25,0,0,0,38.208,11.919,189.8,189.8,0,0,0,42.989,5.418,116.577,116.577,0,0,0,33.158-4.485c4.568-1.507,7.987-3.2,10.163-5.027,2.315-1.944,2.621-3.54,2.47-4.537-.3-1.954-2.643-3.319-5.707-3.319a11.934,11.934,0,0,0-4.2.8l-.443.212a70.707,70.707,0,0,1-13.733,4.992,122.745,122.745,0,0,1-30.585,3.5,214.918,214.918,0,0,1-40.029-4.129C233.764,310.6,213.733,303.142,208.538,301.1Zm-64.332,1.444h0a150.187,150.187,0,0,0,19.82,18.868,91.452,91.452,0,0,0,15.436,9.877,51.893,51.893,0,0,0,17.356,5.363c.589.045,1.147.068,1.661.068a8.513,8.513,0,0,0,3.61-.606,1.618,1.618,0,0,0,1.085-1.366c.016-1.048-1.407-2.259-3.473-2.323l-.1.005-.1.005c-.371.02-.932.05-1.66.05a38.7,38.7,0,0,1-11.247-1.9,81.469,81.469,0,0,1-20.322-10.022C152.512,310.267,145.9,304.166,144.205,302.541Z" transform="translate(1958.813 1570.592) rotate(180)" fill="#fff"/>
  </g>
</svg>
